<svg xmlns="http://www.w3.org/2000/svg" xmlns:xlink="http://www.w3.org/1999/xlink" width="2000" zoomAndPan="magnify" viewBox="0 0 1500 1499.999933" height="2000" preserveAspectRatio="xMidYMid meet" version="1.0"><defs><g/><clipPath id="9331a0e802"><path d="M 206 591 L 511.773438 591 L 511.773438 827 L 206 827 Z M 206 591 " clip-rule="nonzero"/></clipPath><clipPath id="76ee51f21d"><path d="M 61.773438 527 L 456 527 L 456 973 L 61.773438 973 Z M 61.773438 527 " clip-rule="nonzero"/></clipPath><clipPath id="a3f06a2fc0"><path d="M 574.894531 535.503906 L 579.367188 535.503906 L 579.367188 964.503906 L 574.894531 964.503906 Z M 574.894531 535.503906 " clip-rule="nonzero"/></clipPath><clipPath id="97cc6dcf98"><rect x="0" width="784" y="0" height="447"/></clipPath><clipPath id="1f58722606"><rect x="0" width="786" y="0" height="71"/></clipPath></defs><g clip-path="url(#9331a0e802)"><path fill="#222c42" d="M 511.964844 750.710938 L 492.574219 769.476562 L 423.171875 700.765625 L 296.800781 826.050781 L 277.71875 806.96875 L 403.992188 681.78125 L 351.007812 629.324219 L 225.539062 754.800781 L 206.457031 735.71875 L 350.90625 591.269531 Z M 511.964844 750.710938 " fill-opacity="1" fill-rule="nonzero"/></g><g clip-path="url(#76ee51f21d)"><path fill="#8866ff" d="M 436.0625 784.921875 L 455.144531 804.003906 L 286.183594 972.957031 L 61.773438 748.546875 L 286.246094 527 L 305.402344 546 L 100.054688 748.671875 L 286.183594 934.804688 Z M 436.0625 784.921875 " fill-opacity="1" fill-rule="nonzero"/></g><g clip-path="url(#a3f06a2fc0)"><path fill="#231f20" d="M 579.316406 1163.675781 L 579.316406 409.921875 L 576.34375 414.398438 L 573.367188 418.878906 L 573.367188 1172.632812 Z M 579.316406 1163.675781 " fill-opacity="1" fill-rule="nonzero"/></g><g transform="matrix(1, 0, 0, 1, 642, 505)"><g clip-path="url(#97cc6dcf98)"><g fill="#222c42" fill-opacity="1"><g transform="translate(0.292419, 213.707178)"><g><path d="M 6.703125 -56.265625 C 6.703125 -67.910156 9.070312 -78.097656 13.8125 -86.828125 C 18.550781 -95.566406 25.117188 -102.34375 33.515625 -107.15625 C 41.910156 -111.96875 51.523438 -114.375 62.359375 -114.375 C 76.304688 -114.375 87.851562 -110.882812 97 -103.90625 C 106.144531 -96.925781 112.273438 -87.140625 115.390625 -74.546875 L 84.703125 -74.546875 C 83.078125 -79.421875 80.332031 -83.242188 76.46875 -86.015625 C 72.613281 -88.796875 67.84375 -90.1875 62.15625 -90.1875 C 54.03125 -90.1875 47.597656 -87.238281 42.859375 -81.34375 C 38.117188 -75.457031 35.75 -67.097656 35.75 -56.265625 C 35.75 -45.566406 38.117188 -37.269531 42.859375 -31.375 C 47.597656 -25.488281 54.03125 -22.546875 62.15625 -22.546875 C 73.664062 -22.546875 81.179688 -27.691406 84.703125 -37.984375 L 115.390625 -37.984375 C 112.273438 -25.796875 106.109375 -16.113281 96.890625 -8.9375 C 87.679688 -1.757812 76.171875 1.828125 62.359375 1.828125 C 51.523438 1.828125 41.910156 -0.570312 33.515625 -5.375 C 25.117188 -10.1875 18.550781 -16.957031 13.8125 -25.6875 C 9.070312 -34.425781 6.703125 -44.617188 6.703125 -56.265625 Z M 6.703125 -56.265625 "/></g></g></g><g fill="#222c42" fill-opacity="1"><g transform="translate(118.519742, 213.707178)"><g><path d="M 6.703125 -56.671875 C 6.703125 -68.046875 8.96875 -78.132812 13.5 -86.9375 C 18.039062 -95.738281 24.203125 -102.507812 31.984375 -107.25 C 39.773438 -112 48.476562 -114.375 58.09375 -114.375 C 66.488281 -114.375 73.832031 -112.679688 80.125 -109.296875 C 86.425781 -105.910156 91.472656 -101.640625 95.265625 -96.484375 L 95.265625 -112.546875 L 123.921875 -112.546875 L 123.921875 0 L 95.265625 0 L 95.265625 -16.453125 C 91.609375 -11.171875 86.5625 -6.800781 80.125 -3.34375 C 73.695312 0.101562 66.285156 1.828125 57.890625 1.828125 C 48.410156 1.828125 39.773438 -0.609375 31.984375 -5.484375 C 24.203125 -10.359375 18.039062 -17.226562 13.5 -26.09375 C 8.96875 -34.96875 6.703125 -45.160156 6.703125 -56.671875 Z M 95.265625 -56.265625 C 95.265625 -63.171875 93.910156 -69.09375 91.203125 -74.03125 C 88.492188 -78.976562 84.835938 -82.769531 80.234375 -85.40625 C 75.628906 -88.050781 70.6875 -89.375 65.40625 -89.375 C 60.125 -89.375 55.25 -88.085938 50.78125 -85.515625 C 46.3125 -82.941406 42.6875 -79.179688 39.90625 -74.234375 C 37.132812 -69.296875 35.75 -63.441406 35.75 -56.671875 C 35.75 -49.898438 37.132812 -43.972656 39.90625 -38.890625 C 42.6875 -33.816406 46.34375 -29.925781 50.875 -27.21875 C 55.414062 -24.507812 60.257812 -23.15625 65.40625 -23.15625 C 70.6875 -23.15625 75.628906 -24.472656 80.234375 -27.109375 C 84.835938 -29.753906 88.492188 -33.546875 91.203125 -38.484375 C 93.910156 -43.429688 95.265625 -49.359375 95.265625 -56.265625 Z M 95.265625 -56.265625 "/></g></g></g><g fill="#222c42" fill-opacity="1"><g transform="translate(252.18572, 213.707178)"><g><path d="M 42.453125 -95.0625 C 46.109375 -101.03125 50.878906 -105.707031 56.765625 -109.09375 C 62.660156 -112.476562 69.398438 -114.171875 76.984375 -114.171875 L 76.984375 -84.296875 L 69.46875 -84.296875 C 60.53125 -84.296875 53.789062 -82.195312 49.25 -78 C 44.71875 -73.800781 42.453125 -66.488281 42.453125 -56.0625 L 42.453125 0 L 14.015625 0 L 14.015625 -112.546875 L 42.453125 -112.546875 Z M 42.453125 -95.0625 "/></g></g></g><g fill="#222c42" fill-opacity="1"><g transform="translate(330.191313, 213.707178)"><g><path d="M 118.640625 -58.703125 C 118.640625 -54.640625 118.367188 -50.984375 117.828125 -47.734375 L 35.546875 -47.734375 C 36.222656 -39.609375 39.066406 -33.242188 44.078125 -28.640625 C 49.085938 -24.035156 55.25 -21.734375 62.5625 -21.734375 C 73.125 -21.734375 80.640625 -26.269531 85.109375 -35.34375 L 115.796875 -35.34375 C 112.546875 -24.507812 106.3125 -15.601562 97.09375 -8.625 C 87.882812 -1.65625 76.578125 1.828125 63.171875 1.828125 C 52.335938 1.828125 42.617188 -0.570312 34.015625 -5.375 C 25.421875 -10.1875 18.71875 -16.992188 13.90625 -25.796875 C 9.101562 -34.597656 6.703125 -44.753906 6.703125 -56.265625 C 6.703125 -67.910156 9.070312 -78.132812 13.8125 -86.9375 C 18.550781 -95.738281 25.1875 -102.507812 33.71875 -107.25 C 42.25 -112 52.066406 -114.375 63.171875 -114.375 C 73.867188 -114.375 83.453125 -112.066406 91.921875 -107.453125 C 100.390625 -102.847656 106.957031 -96.3125 111.625 -87.84375 C 116.300781 -79.382812 118.640625 -69.671875 118.640625 -58.703125 Z M 89.171875 -66.828125 C 89.035156 -74.140625 86.394531 -79.992188 81.25 -84.390625 C 76.101562 -88.796875 69.804688 -91 62.359375 -91 C 55.316406 -91 49.390625 -88.863281 44.578125 -84.59375 C 39.773438 -80.332031 36.832031 -74.410156 35.75 -66.828125 Z M 89.171875 -66.828125 "/></g></g></g><g fill="#222c42" fill-opacity="1"><g transform="translate(451.465746, 213.707178)"><g><path d="M 118.640625 -58.703125 C 118.640625 -54.640625 118.367188 -50.984375 117.828125 -47.734375 L 35.546875 -47.734375 C 36.222656 -39.609375 39.066406 -33.242188 44.078125 -28.640625 C 49.085938 -24.035156 55.25 -21.734375 62.5625 -21.734375 C 73.125 -21.734375 80.640625 -26.269531 85.109375 -35.34375 L 115.796875 -35.34375 C 112.546875 -24.507812 106.3125 -15.601562 97.09375 -8.625 C 87.882812 -1.65625 76.578125 1.828125 63.171875 1.828125 C 52.335938 1.828125 42.617188 -0.570312 34.015625 -5.375 C 25.421875 -10.1875 18.71875 -16.992188 13.90625 -25.796875 C 9.101562 -34.597656 6.703125 -44.753906 6.703125 -56.265625 C 6.703125 -67.910156 9.070312 -78.132812 13.8125 -86.9375 C 18.550781 -95.738281 25.1875 -102.507812 33.71875 -107.25 C 42.25 -112 52.066406 -114.375 63.171875 -114.375 C 73.867188 -114.375 83.453125 -112.066406 91.921875 -107.453125 C 100.390625 -102.847656 106.957031 -96.3125 111.625 -87.84375 C 116.300781 -79.382812 118.640625 -69.671875 118.640625 -58.703125 Z M 89.171875 -66.828125 C 89.035156 -74.140625 86.394531 -79.992188 81.25 -84.390625 C 76.101562 -88.796875 69.804688 -91 62.359375 -91 C 55.316406 -91 49.390625 -88.863281 44.578125 -84.59375 C 39.773438 -80.332031 36.832031 -74.410156 35.75 -66.828125 Z M 89.171875 -66.828125 "/></g></g></g><g fill="#222c42" fill-opacity="1"><g transform="translate(572.740178, 213.707178)"><g><path d="M 42.453125 -95.0625 C 46.109375 -101.03125 50.878906 -105.707031 56.765625 -109.09375 C 62.660156 -112.476562 69.398438 -114.171875 76.984375 -114.171875 L 76.984375 -84.296875 L 69.46875 -84.296875 C 60.53125 -84.296875 53.789062 -82.195312 49.25 -78 C 44.71875 -73.800781 42.453125 -66.488281 42.453125 -56.0625 L 42.453125 0 L 14.015625 0 L 14.015625 -112.546875 L 42.453125 -112.546875 Z M 42.453125 -95.0625 "/></g></g></g><g fill="#222c42" fill-opacity="1"><g transform="translate(0.292419, 375.447814)"><g><path d="M 65.609375 -89.171875 L 45.90625 -89.171875 L 45.90625 0 L 17.0625 0 L 17.0625 -89.171875 L 4.265625 -89.171875 L 4.265625 -112.546875 L 17.0625 -112.546875 L 17.0625 -118.234375 C 17.0625 -132.046875 20.988281 -142.203125 28.84375 -148.703125 C 36.695312 -155.203125 48.546875 -158.25 64.390625 -157.84375 L 64.390625 -133.875 C 57.484375 -134.007812 52.675781 -132.859375 49.96875 -130.421875 C 47.257812 -127.984375 45.90625 -123.582031 45.90625 -117.21875 L 45.90625 -112.546875 L 65.609375 -112.546875 Z M 65.609375 -89.171875 "/></g></g></g><g fill="#222c42" fill-opacity="1"><g transform="translate(66.312725, 375.447814)"><g><path d="M 63.984375 1.828125 C 53.148438 1.828125 43.398438 -0.570312 34.734375 -5.375 C 26.066406 -10.1875 19.257812 -16.992188 14.3125 -25.796875 C 9.375 -34.597656 6.90625 -44.753906 6.90625 -56.265625 C 6.90625 -67.773438 9.441406 -77.929688 14.515625 -86.734375 C 19.597656 -95.535156 26.539062 -102.34375 35.34375 -107.15625 C 44.144531 -111.96875 53.960938 -114.375 64.796875 -114.375 C 75.628906 -114.375 85.445312 -111.96875 94.25 -107.15625 C 103.0625 -102.34375 110.003906 -95.535156 115.078125 -86.734375 C 120.160156 -77.929688 122.703125 -67.773438 122.703125 -56.265625 C 122.703125 -44.753906 120.09375 -34.597656 114.875 -25.796875 C 109.664062 -16.992188 102.625 -10.1875 93.75 -5.375 C 84.875 -0.570312 74.953125 1.828125 63.984375 1.828125 Z M 63.984375 -22.953125 C 69.128906 -22.953125 73.96875 -24.203125 78.5 -26.703125 C 83.039062 -29.210938 86.664062 -32.972656 89.375 -37.984375 C 92.082031 -42.992188 93.4375 -49.085938 93.4375 -56.265625 C 93.4375 -66.960938 90.625 -75.1875 85 -80.9375 C 79.382812 -86.695312 72.515625 -89.578125 64.390625 -89.578125 C 56.265625 -89.578125 49.457031 -86.695312 43.96875 -80.9375 C 38.488281 -75.1875 35.75 -66.960938 35.75 -56.265625 C 35.75 -45.566406 38.421875 -37.335938 43.765625 -31.578125 C 49.117188 -25.828125 55.859375 -22.953125 63.984375 -22.953125 Z M 63.984375 -22.953125 "/></g></g></g><g fill="#222c42" fill-opacity="1"><g transform="translate(191.853102, 375.447814)"><g><path d="M 42.453125 -95.0625 C 46.109375 -101.03125 50.878906 -105.707031 56.765625 -109.09375 C 62.660156 -112.476562 69.398438 -114.171875 76.984375 -114.171875 L 76.984375 -84.296875 L 69.46875 -84.296875 C 60.53125 -84.296875 53.789062 -82.195312 49.25 -78 C 44.71875 -73.800781 42.453125 -66.488281 42.453125 -56.0625 L 42.453125 0 L 14.015625 0 L 14.015625 -112.546875 L 42.453125 -112.546875 Z M 42.453125 -95.0625 "/></g></g></g><g fill="#222c42" fill-opacity="1"><g transform="translate(269.85868, 375.447814)"><g><path d="M 170.03125 -112.546875 L 137.125 0 L 106.453125 0 L 85.921875 -78.609375 L 65.40625 0 L 34.53125 0 L 1.421875 -112.546875 L 30.265625 -112.546875 L 50.171875 -26.8125 L 71.703125 -112.546875 L 101.78125 -112.546875 L 122.90625 -27.015625 L 142.8125 -112.546875 Z M 170.03125 -112.546875 "/></g></g></g><g fill="#222c42" fill-opacity="1"><g transform="translate(437.245909, 375.447814)"><g><path d="M 6.703125 -56.671875 C 6.703125 -68.046875 8.96875 -78.132812 13.5 -86.9375 C 18.039062 -95.738281 24.203125 -102.507812 31.984375 -107.25 C 39.773438 -112 48.476562 -114.375 58.09375 -114.375 C 66.488281 -114.375 73.832031 -112.679688 80.125 -109.296875 C 86.425781 -105.910156 91.472656 -101.640625 95.265625 -96.484375 L 95.265625 -112.546875 L 123.921875 -112.546875 L 123.921875 0 L 95.265625 0 L 95.265625 -16.453125 C 91.609375 -11.171875 86.5625 -6.800781 80.125 -3.34375 C 73.695312 0.101562 66.285156 1.828125 57.890625 1.828125 C 48.410156 1.828125 39.773438 -0.609375 31.984375 -5.484375 C 24.203125 -10.359375 18.039062 -17.226562 13.5 -26.09375 C 8.96875 -34.96875 6.703125 -45.160156 6.703125 -56.671875 Z M 95.265625 -56.265625 C 95.265625 -63.171875 93.910156 -69.09375 91.203125 -74.03125 C 88.492188 -78.976562 84.835938 -82.769531 80.234375 -85.40625 C 75.628906 -88.050781 70.6875 -89.375 65.40625 -89.375 C 60.125 -89.375 55.25 -88.085938 50.78125 -85.515625 C 46.3125 -82.941406 42.6875 -79.179688 39.90625 -74.234375 C 37.132812 -69.296875 35.75 -63.441406 35.75 -56.671875 C 35.75 -49.898438 37.132812 -43.972656 39.90625 -38.890625 C 42.6875 -33.816406 46.34375 -29.925781 50.875 -27.21875 C 55.414062 -24.507812 60.257812 -23.15625 65.40625 -23.15625 C 70.6875 -23.15625 75.628906 -24.472656 80.234375 -27.109375 C 84.835938 -29.753906 88.492188 -33.546875 91.203125 -38.484375 C 93.910156 -43.429688 95.265625 -49.359375 95.265625 -56.265625 Z M 95.265625 -56.265625 "/></g></g></g><g fill="#222c42" fill-opacity="1"><g transform="translate(570.911935, 375.447814)"><g><path d="M 42.453125 -95.0625 C 46.109375 -101.03125 50.878906 -105.707031 56.765625 -109.09375 C 62.660156 -112.476562 69.398438 -114.171875 76.984375 -114.171875 L 76.984375 -84.296875 L 69.46875 -84.296875 C 60.53125 -84.296875 53.789062 -82.195312 49.25 -78 C 44.71875 -73.800781 42.453125 -66.488281 42.453125 -56.0625 L 42.453125 0 L 14.015625 0 L 14.015625 -112.546875 L 42.453125 -112.546875 Z M 42.453125 -95.0625 "/></g></g></g><g fill="#222c42" fill-opacity="1"><g transform="translate(648.917464, 375.447814)"><g><path d="M 6.703125 -56.671875 C 6.703125 -68.046875 8.96875 -78.132812 13.5 -86.9375 C 18.039062 -95.738281 24.238281 -102.507812 32.09375 -107.25 C 39.945312 -112 48.679688 -114.375 58.296875 -114.375 C 65.609375 -114.375 72.582031 -112.78125 79.21875 -109.59375 C 85.851562 -106.414062 91.132812 -102.179688 95.0625 -96.890625 L 95.0625 -150.328125 L 123.921875 -150.328125 L 123.921875 0 L 95.0625 0 L 95.0625 -16.65625 C 91.539062 -11.101562 86.597656 -6.632812 80.234375 -3.25 C 73.867188 0.132812 66.488281 1.828125 58.09375 1.828125 C 48.613281 1.828125 39.945312 -0.609375 32.09375 -5.484375 C 24.238281 -10.359375 18.039062 -17.226562 13.5 -26.09375 C 8.96875 -34.96875 6.703125 -45.160156 6.703125 -56.671875 Z M 95.265625 -56.265625 C 95.265625 -63.171875 93.910156 -69.09375 91.203125 -74.03125 C 88.492188 -78.976562 84.835938 -82.769531 80.234375 -85.40625 C 75.628906 -88.050781 70.6875 -89.375 65.40625 -89.375 C 60.125 -89.375 55.25 -88.085938 50.78125 -85.515625 C 46.3125 -82.941406 42.6875 -79.179688 39.90625 -74.234375 C 37.132812 -69.296875 35.75 -63.441406 35.75 -56.671875 C 35.75 -49.898438 37.132812 -43.972656 39.90625 -38.890625 C 42.6875 -33.816406 46.34375 -29.925781 50.875 -27.21875 C 55.414062 -24.507812 60.257812 -23.15625 65.40625 -23.15625 C 70.6875 -23.15625 75.628906 -24.472656 80.234375 -27.109375 C 84.835938 -29.753906 88.492188 -33.546875 91.203125 -38.484375 C 93.910156 -43.429688 95.265625 -49.359375 95.265625 -56.265625 Z M 95.265625 -56.265625 "/></g></g></g></g></g><g transform="matrix(1, 0, 0, 1, 642, 907)"><g clip-path="url(#1f58722606)"><g fill="#8866ff" fill-opacity="1"><g transform="translate(0.292419, 52.18991)"><g><path d="M 29.359375 -34.578125 L 17.90625 -12.53125 L 17.90625 0 L 12.234375 0 L 12.234375 -12.53125 L 0.75 -34.578125 L 7.0625 -34.578125 L 15.078125 -17.609375 L 23.078125 -34.578125 Z M 29.359375 -34.578125 "/></g></g></g><g fill="#8866ff" fill-opacity="1"><g transform="translate(34.369058, 52.18991)"><g><path d="M 19.5 0.34375 C 16.28125 0.34375 13.316406 -0.40625 10.609375 -1.90625 C 7.910156 -3.414062 5.773438 -5.519531 4.203125 -8.21875 C 2.628906 -10.925781 1.84375 -13.972656 1.84375 -17.359375 C 1.84375 -20.742188 2.628906 -23.78125 4.203125 -26.46875 C 5.773438 -29.15625 7.910156 -31.253906 10.609375 -32.765625 C 13.316406 -34.273438 16.28125 -35.03125 19.5 -35.03125 C 22.75 -35.03125 25.722656 -34.273438 28.421875 -32.765625 C 31.128906 -31.253906 33.257812 -29.15625 34.8125 -26.46875 C 36.375 -23.78125 37.15625 -20.742188 37.15625 -17.359375 C 37.15625 -13.972656 36.375 -10.925781 34.8125 -8.21875 C 33.257812 -5.519531 31.128906 -3.414062 28.421875 -1.90625 C 25.722656 -0.40625 22.75 0.34375 19.5 0.34375 Z M 19.5 -4.578125 C 21.789062 -4.578125 23.832031 -5.097656 25.625 -6.140625 C 27.414062 -7.191406 28.816406 -8.6875 29.828125 -10.625 C 30.835938 -12.5625 31.34375 -14.804688 31.34375 -17.359375 C 31.34375 -19.910156 30.835938 -22.148438 29.828125 -24.078125 C 28.816406 -26.003906 27.414062 -27.476562 25.625 -28.5 C 23.832031 -29.53125 21.789062 -30.046875 19.5 -30.046875 C 17.207031 -30.046875 15.164062 -29.53125 13.375 -28.5 C 11.59375 -27.476562 10.191406 -26.003906 9.171875 -24.078125 C 8.160156 -22.148438 7.65625 -19.910156 7.65625 -17.359375 C 7.65625 -14.804688 8.160156 -12.5625 9.171875 -10.625 C 10.191406 -8.6875 11.59375 -7.191406 13.375 -6.140625 C 15.164062 -5.097656 17.207031 -4.578125 19.5 -4.578125 Z M 19.5 -4.578125 "/></g></g></g><g fill="#8866ff" fill-opacity="1"><g transform="translate(77.350217, 52.18991)"><g><path d="M 9.359375 -34.578125 L 9.359375 -12.53125 C 9.359375 -9.914062 10.046875 -7.941406 11.421875 -6.609375 C 12.796875 -5.285156 14.707031 -4.625 17.15625 -4.625 C 19.644531 -4.625 21.578125 -5.285156 22.953125 -6.609375 C 24.335938 -7.941406 25.03125 -9.914062 25.03125 -12.53125 L 25.03125 -34.578125 L 30.703125 -34.578125 L 30.703125 -12.640625 C 30.703125 -9.816406 30.085938 -7.425781 28.859375 -5.46875 C 27.628906 -3.507812 25.984375 -2.050781 23.921875 -1.09375 C 21.867188 -0.132812 19.597656 0.34375 17.109375 0.34375 C 14.617188 0.34375 12.351562 -0.132812 10.3125 -1.09375 C 8.28125 -2.050781 6.664062 -3.507812 5.46875 -5.46875 C 4.28125 -7.425781 3.6875 -9.816406 3.6875 -12.640625 L 3.6875 -34.578125 Z M 9.359375 -34.578125 "/></g></g></g><g fill="#8866ff" fill-opacity="1"><g transform="translate(115.655261, 52.18991)"><g><path d="M 21.6875 0 L 13.734375 -13.828125 L 9.40625 -13.828125 L 9.40625 0 L 3.734375 0 L 3.734375 -34.578125 L 15.671875 -34.578125 C 18.328125 -34.578125 20.570312 -34.113281 22.40625 -33.1875 C 24.25 -32.257812 25.625 -31.015625 26.53125 -29.453125 C 27.445312 -27.890625 27.90625 -26.148438 27.90625 -24.234375 C 27.90625 -21.972656 27.25 -19.921875 25.9375 -18.078125 C 24.632812 -16.242188 22.625 -14.992188 19.90625 -14.328125 L 28.453125 0 Z M 9.40625 -18.359375 L 15.671875 -18.359375 C 17.796875 -18.359375 19.394531 -18.890625 20.46875 -19.953125 C 21.550781 -21.015625 22.09375 -22.441406 22.09375 -24.234375 C 22.09375 -26.023438 21.5625 -27.425781 20.5 -28.4375 C 19.4375 -29.445312 17.828125 -29.953125 15.671875 -29.953125 L 9.40625 -29.953125 Z M 9.40625 -18.359375 "/></g></g></g><g fill="#8866ff" fill-opacity="1"><g transform="translate(151.075042, 52.18991)"><g/></g></g><g fill="#8866ff" fill-opacity="1"><g transform="translate(167.989314, 52.18991)"><g><path d="M 27.90625 -24.28125 C 27.90625 -22.519531 27.488281 -20.859375 26.65625 -19.296875 C 25.832031 -17.742188 24.507812 -16.476562 22.6875 -15.5 C 20.863281 -14.519531 18.523438 -14.03125 15.671875 -14.03125 L 9.40625 -14.03125 L 9.40625 0 L 3.734375 0 L 3.734375 -34.578125 L 15.671875 -34.578125 C 18.328125 -34.578125 20.570312 -34.117188 22.40625 -33.203125 C 24.25 -32.296875 25.625 -31.0625 26.53125 -29.5 C 27.445312 -27.9375 27.90625 -26.195312 27.90625 -24.28125 Z M 15.671875 -18.65625 C 17.828125 -18.65625 19.4375 -19.144531 20.5 -20.125 C 21.5625 -21.101562 22.09375 -22.488281 22.09375 -24.28125 C 22.09375 -28.0625 19.953125 -29.953125 15.671875 -29.953125 L 9.40625 -29.953125 L 9.40625 -18.65625 Z M 15.671875 -18.65625 "/></g></g></g><g fill="#8866ff" fill-opacity="1"><g transform="translate(201.568479, 52.18991)"><g><path d="M 24.578125 -7.0625 L 10.09375 -7.0625 L 7.609375 0 L 1.6875 0 L 14.078125 -34.625 L 20.640625 -34.625 L 33.03125 0 L 27.0625 0 Z M 22.984375 -11.6875 L 17.359375 -27.765625 L 11.6875 -11.6875 Z M 22.984375 -11.6875 "/></g></g></g><g fill="#8866ff" fill-opacity="1"><g transform="translate(240.221734, 52.18991)"><g><path d="M 26.0625 -34.578125 L 26.0625 -29.953125 L 16.859375 -29.953125 L 16.859375 0 L 11.1875 0 L 11.1875 -29.953125 L 1.9375 -29.953125 L 1.9375 -34.578125 Z M 26.0625 -34.578125 "/></g></g></g><g fill="#8866ff" fill-opacity="1"><g transform="translate(272.258778, 52.18991)"><g><path d="M 31.34375 -34.578125 L 31.34375 0 L 25.671875 0 L 25.671875 -15.125 L 9.40625 -15.125 L 9.40625 0 L 3.734375 0 L 3.734375 -34.578125 L 9.40625 -34.578125 L 9.40625 -19.75 L 25.671875 -19.75 L 25.671875 -34.578125 Z M 31.34375 -34.578125 "/></g></g></g><g fill="#8866ff" fill-opacity="1"><g transform="translate(311.310008, 52.18991)"><g/></g></g><g fill="#8866ff" fill-opacity="1"><g transform="translate(328.22428, 52.18991)"><g><path d="M 26.0625 -34.578125 L 26.0625 -29.953125 L 16.859375 -29.953125 L 16.859375 0 L 11.1875 0 L 11.1875 -29.953125 L 1.9375 -29.953125 L 1.9375 -34.578125 Z M 26.0625 -34.578125 "/></g></g></g><g fill="#8866ff" fill-opacity="1"><g transform="translate(360.261339, 52.18991)"><g><path d="M 19.5 0.34375 C 16.28125 0.34375 13.316406 -0.40625 10.609375 -1.90625 C 7.910156 -3.414062 5.773438 -5.519531 4.203125 -8.21875 C 2.628906 -10.925781 1.84375 -13.972656 1.84375 -17.359375 C 1.84375 -20.742188 2.628906 -23.78125 4.203125 -26.46875 C 5.773438 -29.15625 7.910156 -31.253906 10.609375 -32.765625 C 13.316406 -34.273438 16.28125 -35.03125 19.5 -35.03125 C 22.75 -35.03125 25.722656 -34.273438 28.421875 -32.765625 C 31.128906 -31.253906 33.257812 -29.15625 34.8125 -26.46875 C 36.375 -23.78125 37.15625 -20.742188 37.15625 -17.359375 C 37.15625 -13.972656 36.375 -10.925781 34.8125 -8.21875 C 33.257812 -5.519531 31.128906 -3.414062 28.421875 -1.90625 C 25.722656 -0.40625 22.75 0.34375 19.5 0.34375 Z M 19.5 -4.578125 C 21.789062 -4.578125 23.832031 -5.097656 25.625 -6.140625 C 27.414062 -7.191406 28.816406 -8.6875 29.828125 -10.625 C 30.835938 -12.5625 31.34375 -14.804688 31.34375 -17.359375 C 31.34375 -19.910156 30.835938 -22.148438 29.828125 -24.078125 C 28.816406 -26.003906 27.414062 -27.476562 25.625 -28.5 C 23.832031 -29.53125 21.789062 -30.046875 19.5 -30.046875 C 17.207031 -30.046875 15.164062 -29.53125 13.375 -28.5 C 11.59375 -27.476562 10.191406 -26.003906 9.171875 -24.078125 C 8.160156 -22.148438 7.65625 -19.910156 7.65625 -17.359375 C 7.65625 -14.804688 8.160156 -12.5625 9.171875 -10.625 C 10.191406 -8.6875 11.59375 -7.191406 13.375 -6.140625 C 15.164062 -5.097656 17.207031 -4.578125 19.5 -4.578125 Z M 19.5 -4.578125 "/></g></g></g><g fill="#8866ff" fill-opacity="1"><g transform="translate(403.242465, 52.18991)"><g/></g></g><g fill="#8866ff" fill-opacity="1"><g transform="translate(420.156737, 52.18991)"><g><path d="M 9.40625 -30 L 9.40625 -19.84375 L 21.34375 -19.84375 L 21.34375 -15.21875 L 9.40625 -15.21875 L 9.40625 -4.625 L 22.828125 -4.625 L 22.828125 0 L 3.734375 0 L 3.734375 -34.625 L 22.828125 -34.625 L 22.828125 -30 Z M 9.40625 -30 "/></g></g></g><g fill="#8866ff" fill-opacity="1"><g transform="translate(450.203966, 52.18991)"><g><path d="M 40.140625 -34.578125 L 40.140625 0 L 34.484375 0 L 34.484375 -23.6875 L 23.9375 0 L 20 0 L 9.40625 -23.6875 L 9.40625 0 L 3.734375 0 L 3.734375 -34.578125 L 9.84375 -34.578125 L 21.984375 -7.46875 L 34.078125 -34.578125 Z M 40.140625 -34.578125 "/></g></g></g><g fill="#8866ff" fill-opacity="1"><g transform="translate(498.060235, 52.18991)"><g><path d="M 27.90625 -24.28125 C 27.90625 -22.519531 27.488281 -20.859375 26.65625 -19.296875 C 25.832031 -17.742188 24.507812 -16.476562 22.6875 -15.5 C 20.863281 -14.519531 18.523438 -14.03125 15.671875 -14.03125 L 9.40625 -14.03125 L 9.40625 0 L 3.734375 0 L 3.734375 -34.578125 L 15.671875 -34.578125 C 18.328125 -34.578125 20.570312 -34.117188 22.40625 -33.203125 C 24.25 -32.296875 25.625 -31.0625 26.53125 -29.5 C 27.445312 -27.9375 27.90625 -26.195312 27.90625 -24.28125 Z M 15.671875 -18.65625 C 17.828125 -18.65625 19.4375 -19.144531 20.5 -20.125 C 21.5625 -21.101562 22.09375 -22.488281 22.09375 -24.28125 C 22.09375 -28.0625 19.953125 -29.953125 15.671875 -29.953125 L 9.40625 -29.953125 L 9.40625 -18.65625 Z M 15.671875 -18.65625 "/></g></g></g><g fill="#8866ff" fill-opacity="1"><g transform="translate(531.639384, 52.18991)"><g><path d="M 9.40625 -4.578125 L 21.09375 -4.578125 L 21.09375 0 L 3.734375 0 L 3.734375 -34.578125 L 9.40625 -34.578125 Z M 9.40625 -4.578125 "/></g></g></g><g fill="#8866ff" fill-opacity="1"><g transform="translate(557.706953, 52.18991)"><g><path d="M 19.5 0.34375 C 16.28125 0.34375 13.316406 -0.40625 10.609375 -1.90625 C 7.910156 -3.414062 5.773438 -5.519531 4.203125 -8.21875 C 2.628906 -10.925781 1.84375 -13.972656 1.84375 -17.359375 C 1.84375 -20.742188 2.628906 -23.78125 4.203125 -26.46875 C 5.773438 -29.15625 7.910156 -31.253906 10.609375 -32.765625 C 13.316406 -34.273438 16.28125 -35.03125 19.5 -35.03125 C 22.75 -35.03125 25.722656 -34.273438 28.421875 -32.765625 C 31.128906 -31.253906 33.257812 -29.15625 34.8125 -26.46875 C 36.375 -23.78125 37.15625 -20.742188 37.15625 -17.359375 C 37.15625 -13.972656 36.375 -10.925781 34.8125 -8.21875 C 33.257812 -5.519531 31.128906 -3.414062 28.421875 -1.90625 C 25.722656 -0.40625 22.75 0.34375 19.5 0.34375 Z M 19.5 -4.578125 C 21.789062 -4.578125 23.832031 -5.097656 25.625 -6.140625 C 27.414062 -7.191406 28.816406 -8.6875 29.828125 -10.625 C 30.835938 -12.5625 31.34375 -14.804688 31.34375 -17.359375 C 31.34375 -19.910156 30.835938 -22.148438 29.828125 -24.078125 C 28.816406 -26.003906 27.414062 -27.476562 25.625 -28.5 C 23.832031 -29.53125 21.789062 -30.046875 19.5 -30.046875 C 17.207031 -30.046875 15.164062 -29.53125 13.375 -28.5 C 11.59375 -27.476562 10.191406 -26.003906 9.171875 -24.078125 C 8.160156 -22.148438 7.65625 -19.910156 7.65625 -17.359375 C 7.65625 -14.804688 8.160156 -12.5625 9.171875 -10.625 C 10.191406 -8.6875 11.59375 -7.191406 13.375 -6.140625 C 15.164062 -5.097656 17.207031 -4.578125 19.5 -4.578125 Z M 19.5 -4.578125 "/></g></g></g><g fill="#8866ff" fill-opacity="1"><g transform="translate(600.688079, 52.18991)"><g><path d="M 29.359375 -34.578125 L 17.90625 -12.53125 L 17.90625 0 L 12.234375 0 L 12.234375 -12.53125 L 0.75 -34.578125 L 7.0625 -34.578125 L 15.078125 -17.609375 L 23.078125 -34.578125 Z M 29.359375 -34.578125 "/></g></g></g><g fill="#8866ff" fill-opacity="1"><g transform="translate(634.764717, 52.18991)"><g><path d="M 40.140625 -34.578125 L 40.140625 0 L 34.484375 0 L 34.484375 -23.6875 L 23.9375 0 L 20 0 L 9.40625 -23.6875 L 9.40625 0 L 3.734375 0 L 3.734375 -34.578125 L 9.84375 -34.578125 L 21.984375 -7.46875 L 34.078125 -34.578125 Z M 40.140625 -34.578125 "/></g></g></g><g fill="#8866ff" fill-opacity="1"><g transform="translate(682.620986, 52.18991)"><g><path d="M 9.40625 -30 L 9.40625 -19.84375 L 21.34375 -19.84375 L 21.34375 -15.21875 L 9.40625 -15.21875 L 9.40625 -4.625 L 22.828125 -4.625 L 22.828125 0 L 3.734375 0 L 3.734375 -34.625 L 22.828125 -34.625 L 22.828125 -30 Z M 9.40625 -30 "/></g></g></g><g fill="#8866ff" fill-opacity="1"><g transform="translate(712.668215, 52.18991)"><g><path d="M 32.140625 0 L 26.46875 0 L 9.40625 -25.8125 L 9.40625 0 L 3.734375 0 L 3.734375 -34.625 L 9.40625 -34.625 L 26.46875 -8.859375 L 26.46875 -34.625 L 32.140625 -34.625 Z M 32.140625 0 "/></g></g></g><g fill="#8866ff" fill-opacity="1"><g transform="translate(752.515414, 52.18991)"><g><path d="M 26.0625 -34.578125 L 26.0625 -29.953125 L 16.859375 -29.953125 L 16.859375 0 L 11.1875 0 L 11.1875 -29.953125 L 1.9375 -29.953125 L 1.9375 -34.578125 Z M 26.0625 -34.578125 "/></g></g></g></g></g></svg>