<svg xmlns="http://www.w3.org/2000/svg" xmlns:xlink="http://www.w3.org/1999/xlink" width="2000" zoomAndPan="magnify" viewBox="0 0 1500 1499.999933" height="2000" preserveAspectRatio="xMidYMid meet" version="1.0"><defs><g/><clipPath id="281f5af031"><rect x="0" width="1384" y="0" height="789"/></clipPath><clipPath id="e32719008f"><rect x="0" width="1387" y="0" height="123"/></clipPath></defs><g transform="matrix(1, 0, 0, 1, 47, 318)"><g clip-path="url(#281f5af031)"><g fill="#222c42" fill-opacity="1"><g transform="translate(0.315149, 376.746686)"><g><path d="M 11.84375 -99.359375 C 11.84375 -119.921875 16.023438 -137.910156 24.390625 -153.328125 C 32.753906 -168.753906 44.347656 -180.710938 59.171875 -189.203125 C 74.003906 -197.691406 90.984375 -201.9375 110.109375 -201.9375 C 134.742188 -201.9375 155.128906 -195.78125 171.265625 -183.46875 C 187.410156 -171.15625 198.234375 -153.878906 203.734375 -131.640625 L 149.578125 -131.640625 C 146.703125 -140.242188 141.859375 -146.992188 135.046875 -151.890625 C 128.234375 -156.796875 119.804688 -159.25 109.765625 -159.25 C 95.410156 -159.25 84.046875 -154.046875 75.671875 -143.640625 C 67.304688 -133.242188 63.125 -118.484375 63.125 -99.359375 C 63.125 -80.460938 67.304688 -65.8125 75.671875 -55.40625 C 84.046875 -45.007812 95.410156 -39.8125 109.765625 -39.8125 C 130.085938 -39.8125 143.359375 -48.898438 149.578125 -67.078125 L 203.734375 -67.078125 C 198.234375 -45.554688 187.351562 -28.457031 171.09375 -15.78125 C 154.832031 -3.101562 134.503906 3.234375 110.109375 3.234375 C 90.984375 3.234375 74.003906 -1.007812 59.171875 -9.5 C 44.347656 -17.988281 32.753906 -29.945312 24.390625 -45.375 C 16.023438 -60.800781 11.84375 -78.796875 11.84375 -99.359375 Z M 11.84375 -99.359375 "/></g></g></g><g fill="#222c42" fill-opacity="1"><g transform="translate(209.067454, 376.746686)"><g><path d="M 11.84375 -100.078125 C 11.84375 -120.160156 15.847656 -137.972656 23.859375 -153.515625 C 31.867188 -169.054688 42.75 -181.007812 56.5 -189.375 C 70.25 -197.75 85.609375 -201.9375 102.578125 -201.9375 C 117.410156 -201.9375 130.382812 -198.945312 141.5 -192.96875 C 152.625 -186.988281 161.53125 -179.457031 168.21875 -170.375 L 168.21875 -198.71875 L 218.796875 -198.71875 L 218.796875 0 L 168.21875 0 L 168.21875 -29.046875 C 161.769531 -19.722656 152.863281 -12.007812 141.5 -5.90625 C 130.144531 0.1875 117.050781 3.234375 102.21875 3.234375 C 85.488281 3.234375 70.25 -1.066406 56.5 -9.671875 C 42.75 -18.285156 31.867188 -30.421875 23.859375 -46.078125 C 15.847656 -61.742188 11.84375 -79.742188 11.84375 -100.078125 Z M 168.21875 -99.359375 C 168.21875 -111.554688 165.828125 -122.015625 161.046875 -130.734375 C 156.265625 -139.460938 149.804688 -146.160156 141.671875 -150.828125 C 133.546875 -155.492188 124.820312 -157.828125 115.5 -157.828125 C 106.175781 -157.828125 97.566406 -155.550781 89.671875 -151 C 81.773438 -146.457031 75.375 -139.820312 70.46875 -131.09375 C 65.570312 -122.375 63.125 -112.035156 63.125 -100.078125 C 63.125 -88.117188 65.570312 -77.65625 70.46875 -68.6875 C 75.375 -59.71875 81.832031 -52.84375 89.84375 -48.0625 C 97.863281 -43.28125 106.414062 -40.890625 115.5 -40.890625 C 124.820312 -40.890625 133.546875 -43.21875 141.671875 -47.875 C 149.804688 -52.539062 156.265625 -59.238281 161.046875 -67.96875 C 165.828125 -76.695312 168.21875 -87.160156 168.21875 -99.359375 Z M 168.21875 -99.359375 "/></g></g></g><g fill="#222c42" fill-opacity="1"><g transform="translate(445.079573, 376.746686)"><g><path d="M 74.96875 -167.859375 C 81.425781 -178.378906 89.851562 -186.628906 100.25 -192.609375 C 110.65625 -198.585938 122.550781 -201.578125 135.9375 -201.578125 L 135.9375 -148.859375 L 122.671875 -148.859375 C 106.890625 -148.859375 94.992188 -145.148438 86.984375 -137.734375 C 78.972656 -130.316406 74.96875 -117.40625 74.96875 -99 L 74.96875 0 L 24.75 0 L 24.75 -198.71875 L 74.96875 -198.71875 Z M 74.96875 -167.859375 "/></g></g></g><g fill="#222c42" fill-opacity="1"><g transform="translate(582.812942, 376.746686)"><g><path d="M 209.46875 -103.65625 C 209.46875 -96.488281 208.988281 -90.035156 208.03125 -84.296875 L 62.765625 -84.296875 C 63.960938 -69.941406 68.984375 -58.695312 77.828125 -50.5625 C 86.679688 -42.4375 97.5625 -38.375 110.46875 -38.375 C 129.125 -38.375 142.398438 -46.382812 150.296875 -62.40625 L 204.453125 -62.40625 C 198.710938 -43.28125 187.710938 -27.554688 171.453125 -15.234375 C 155.191406 -2.921875 135.222656 3.234375 111.546875 3.234375 C 92.421875 3.234375 75.265625 -1.007812 60.078125 -9.5 C 44.890625 -17.988281 33.050781 -30.003906 24.5625 -45.546875 C 16.082031 -61.097656 11.84375 -79.035156 11.84375 -99.359375 C 11.84375 -119.921875 16.023438 -137.972656 24.390625 -153.515625 C 32.753906 -169.054688 44.46875 -181.007812 59.53125 -189.375 C 74.601562 -197.75 91.941406 -201.9375 111.546875 -201.9375 C 130.441406 -201.9375 147.359375 -197.867188 162.296875 -189.734375 C 177.242188 -181.609375 188.84375 -170.070312 197.09375 -155.125 C 205.34375 -140.1875 209.46875 -123.03125 209.46875 -103.65625 Z M 157.46875 -118.015625 C 157.226562 -130.921875 152.5625 -141.257812 143.46875 -149.03125 C 134.382812 -156.800781 123.265625 -160.6875 110.109375 -160.6875 C 97.679688 -160.6875 87.222656 -156.921875 78.734375 -149.390625 C 70.242188 -141.859375 65.039062 -131.398438 63.125 -118.015625 Z M 157.46875 -118.015625 "/></g></g></g><g fill="#222c42" fill-opacity="1"><g transform="translate(796.945485, 376.746686)"><g><path d="M 209.46875 -103.65625 C 209.46875 -96.488281 208.988281 -90.035156 208.03125 -84.296875 L 62.765625 -84.296875 C 63.960938 -69.941406 68.984375 -58.695312 77.828125 -50.5625 C 86.679688 -42.4375 97.5625 -38.375 110.46875 -38.375 C 129.125 -38.375 142.398438 -46.382812 150.296875 -62.40625 L 204.453125 -62.40625 C 198.710938 -43.28125 187.710938 -27.554688 171.453125 -15.234375 C 155.191406 -2.921875 135.222656 3.234375 111.546875 3.234375 C 92.421875 3.234375 75.265625 -1.007812 60.078125 -9.5 C 44.890625 -17.988281 33.050781 -30.003906 24.5625 -45.546875 C 16.082031 -61.097656 11.84375 -79.035156 11.84375 -99.359375 C 11.84375 -119.921875 16.023438 -137.972656 24.390625 -153.515625 C 32.753906 -169.054688 44.46875 -181.007812 59.53125 -189.375 C 74.601562 -197.75 91.941406 -201.9375 111.546875 -201.9375 C 130.441406 -201.9375 147.359375 -197.867188 162.296875 -189.734375 C 177.242188 -181.609375 188.84375 -170.070312 197.09375 -155.125 C 205.34375 -140.1875 209.46875 -123.03125 209.46875 -103.65625 Z M 157.46875 -118.015625 C 157.226562 -130.921875 152.5625 -141.257812 143.46875 -149.03125 C 134.382812 -156.800781 123.265625 -160.6875 110.109375 -160.6875 C 97.679688 -160.6875 87.222656 -156.921875 78.734375 -149.390625 C 70.242188 -141.859375 65.039062 -131.398438 63.125 -118.015625 Z M 157.46875 -118.015625 "/></g></g></g><g fill="#222c42" fill-opacity="1"><g transform="translate(1011.078028, 376.746686)"><g><path d="M 74.96875 -167.859375 C 81.425781 -178.378906 89.851562 -186.628906 100.25 -192.609375 C 110.65625 -198.585938 122.550781 -201.578125 135.9375 -201.578125 L 135.9375 -148.859375 L 122.671875 -148.859375 C 106.890625 -148.859375 94.992188 -145.148438 86.984375 -137.734375 C 78.972656 -130.316406 74.96875 -117.40625 74.96875 -99 L 74.96875 0 L 24.75 0 L 24.75 -198.71875 L 74.96875 -198.71875 Z M 74.96875 -167.859375 "/></g></g></g><g fill="#222c42" fill-opacity="1"><g transform="translate(0.315149, 662.329831)"><g><path d="M 115.859375 -157.46875 L 81.0625 -157.46875 L 81.0625 0 L 30.125 0 L 30.125 -157.46875 L 7.53125 -157.46875 L 7.53125 -198.71875 L 30.125 -198.71875 L 30.125 -208.75 C 30.125 -233.144531 37.054688 -251.082031 50.921875 -262.5625 C 64.796875 -274.039062 85.722656 -279.421875 113.703125 -278.703125 L 113.703125 -236.375 C 101.503906 -236.613281 93.015625 -234.582031 88.234375 -230.28125 C 83.453125 -225.976562 81.0625 -218.207031 81.0625 -206.96875 L 81.0625 -198.71875 L 115.859375 -198.71875 Z M 115.859375 -157.46875 "/></g></g></g><g fill="#222c42" fill-opacity="1"><g transform="translate(116.886266, 662.329831)"><g><path d="M 112.984375 3.234375 C 93.859375 3.234375 76.640625 -1.007812 61.328125 -9.5 C 46.023438 -17.988281 34.007812 -30.003906 25.28125 -45.546875 C 16.5625 -61.097656 12.203125 -79.035156 12.203125 -99.359375 C 12.203125 -119.679688 16.679688 -137.613281 25.640625 -153.15625 C 34.609375 -168.695312 46.863281 -180.710938 62.40625 -189.203125 C 77.945312 -197.691406 95.285156 -201.9375 114.421875 -201.9375 C 133.546875 -201.9375 150.878906 -197.691406 166.421875 -189.203125 C 181.972656 -180.710938 194.226562 -168.695312 203.1875 -153.15625 C 212.15625 -137.613281 216.640625 -119.679688 216.640625 -99.359375 C 216.640625 -79.035156 212.035156 -61.097656 202.828125 -45.546875 C 193.628906 -30.003906 181.195312 -17.988281 165.53125 -9.5 C 149.875 -1.007812 132.359375 3.234375 112.984375 3.234375 Z M 112.984375 -40.53125 C 122.066406 -40.53125 130.613281 -42.738281 138.625 -47.15625 C 146.644531 -51.582031 153.046875 -58.21875 157.828125 -67.0625 C 162.609375 -75.914062 165 -86.679688 165 -99.359375 C 165 -118.242188 160.035156 -132.769531 150.109375 -142.9375 C 140.179688 -153.101562 128.046875 -158.1875 113.703125 -158.1875 C 99.359375 -158.1875 87.34375 -153.101562 77.65625 -142.9375 C 67.96875 -132.769531 63.125 -118.242188 63.125 -99.359375 C 63.125 -80.460938 67.847656 -65.929688 77.296875 -55.765625 C 86.742188 -45.609375 98.640625 -40.53125 112.984375 -40.53125 Z M 112.984375 -40.53125 "/></g></g></g><g fill="#222c42" fill-opacity="1"><g transform="translate(338.551126, 662.329831)"><g><path d="M 74.96875 -167.859375 C 81.425781 -178.378906 89.851562 -186.628906 100.25 -192.609375 C 110.65625 -198.585938 122.550781 -201.578125 135.9375 -201.578125 L 135.9375 -148.859375 L 122.671875 -148.859375 C 106.890625 -148.859375 94.992188 -145.148438 86.984375 -137.734375 C 78.972656 -130.316406 74.96875 -117.40625 74.96875 -99 L 74.96875 0 L 24.75 0 L 24.75 -198.71875 L 74.96875 -198.71875 Z M 74.96875 -167.859375 "/></g></g></g><g fill="#222c42" fill-opacity="1"><g transform="translate(476.284467, 662.329831)"><g><path d="M 300.21875 -198.71875 L 242.109375 0 L 187.953125 0 L 151.71875 -138.8125 L 115.5 0 L 60.984375 0 L 2.515625 -198.71875 L 53.4375 -198.71875 L 88.59375 -47.34375 L 126.609375 -198.71875 L 179.703125 -198.71875 L 217 -47.703125 L 252.15625 -198.71875 Z M 300.21875 -198.71875 "/></g></g></g><g fill="#222c42" fill-opacity="1"><g transform="translate(771.837721, 662.329831)"><g><path d="M 11.84375 -100.078125 C 11.84375 -120.160156 15.847656 -137.972656 23.859375 -153.515625 C 31.867188 -169.054688 42.75 -181.007812 56.5 -189.375 C 70.25 -197.75 85.609375 -201.9375 102.578125 -201.9375 C 117.410156 -201.9375 130.382812 -198.945312 141.5 -192.96875 C 152.625 -186.988281 161.53125 -179.457031 168.21875 -170.375 L 168.21875 -198.71875 L 218.796875 -198.71875 L 218.796875 0 L 168.21875 0 L 168.21875 -29.046875 C 161.769531 -19.722656 152.863281 -12.007812 141.5 -5.90625 C 130.144531 0.1875 117.050781 3.234375 102.21875 3.234375 C 85.488281 3.234375 70.25 -1.066406 56.5 -9.671875 C 42.75 -18.285156 31.867188 -30.421875 23.859375 -46.078125 C 15.847656 -61.742188 11.84375 -79.742188 11.84375 -100.078125 Z M 168.21875 -99.359375 C 168.21875 -111.554688 165.828125 -122.015625 161.046875 -130.734375 C 156.265625 -139.460938 149.804688 -146.160156 141.671875 -150.828125 C 133.546875 -155.492188 124.820312 -157.828125 115.5 -157.828125 C 106.175781 -157.828125 97.566406 -155.550781 89.671875 -151 C 81.773438 -146.457031 75.375 -139.820312 70.46875 -131.09375 C 65.570312 -122.375 63.125 -112.035156 63.125 -100.078125 C 63.125 -88.117188 65.570312 -77.65625 70.46875 -68.6875 C 75.375 -59.71875 81.832031 -52.84375 89.84375 -48.0625 C 97.863281 -43.28125 106.414062 -40.890625 115.5 -40.890625 C 124.820312 -40.890625 133.546875 -43.21875 141.671875 -47.875 C 149.804688 -52.539062 156.265625 -59.238281 161.046875 -67.96875 C 165.828125 -76.695312 168.21875 -87.160156 168.21875 -99.359375 Z M 168.21875 -99.359375 "/></g></g></g><g fill="#222c42" fill-opacity="1"><g transform="translate(1007.849926, 662.329831)"><g><path d="M 74.96875 -167.859375 C 81.425781 -178.378906 89.851562 -186.628906 100.25 -192.609375 C 110.65625 -198.585938 122.550781 -201.578125 135.9375 -201.578125 L 135.9375 -148.859375 L 122.671875 -148.859375 C 106.890625 -148.859375 94.992188 -145.148438 86.984375 -137.734375 C 78.972656 -130.316406 74.96875 -117.40625 74.96875 -99 L 74.96875 0 L 24.75 0 L 24.75 -198.71875 L 74.96875 -198.71875 Z M 74.96875 -167.859375 "/></g></g></g><g fill="#222c42" fill-opacity="1"><g transform="translate(1145.58318, 662.329831)"><g><path d="M 11.84375 -100.078125 C 11.84375 -120.160156 15.847656 -137.972656 23.859375 -153.515625 C 31.867188 -169.054688 42.804688 -181.007812 56.671875 -189.375 C 70.535156 -197.75 85.957031 -201.9375 102.9375 -201.9375 C 115.851562 -201.9375 128.171875 -199.125 139.890625 -193.5 C 151.609375 -187.882812 160.929688 -180.414062 167.859375 -171.09375 L 167.859375 -265.421875 L 218.796875 -265.421875 L 218.796875 0 L 167.859375 0 L 167.859375 -29.40625 C 161.648438 -19.601562 152.925781 -11.710938 141.6875 -5.734375 C 130.445312 0.242188 117.410156 3.234375 102.578125 3.234375 C 85.835938 3.234375 70.535156 -1.066406 56.671875 -9.671875 C 42.804688 -18.285156 31.867188 -30.421875 23.859375 -46.078125 C 15.847656 -61.742188 11.84375 -79.742188 11.84375 -100.078125 Z M 168.21875 -99.359375 C 168.21875 -111.554688 165.828125 -122.015625 161.046875 -130.734375 C 156.265625 -139.460938 149.804688 -146.160156 141.671875 -150.828125 C 133.546875 -155.492188 124.820312 -157.828125 115.5 -157.828125 C 106.175781 -157.828125 97.566406 -155.550781 89.671875 -151 C 81.773438 -146.457031 75.375 -139.820312 70.46875 -131.09375 C 65.570312 -122.375 63.125 -112.035156 63.125 -100.078125 C 63.125 -88.117188 65.570312 -77.65625 70.46875 -68.6875 C 75.375 -59.71875 81.832031 -52.84375 89.84375 -48.0625 C 97.863281 -43.28125 106.414062 -40.890625 115.5 -40.890625 C 124.820312 -40.890625 133.546875 -43.21875 141.671875 -47.875 C 149.804688 -52.539062 156.265625 -59.238281 161.046875 -67.96875 C 165.828125 -76.695312 168.21875 -87.160156 168.21875 -99.359375 Z M 168.21875 -99.359375 "/></g></g></g></g></g><g transform="matrix(1, 0, 0, 1, 47, 1029)"><g clip-path="url(#e32719008f)"><g fill="#8866ff" fill-opacity="1"><g transform="translate(0.315149, 90.363609)"><g><path d="M 51.8125 -61.046875 L 31.625 -22.125 L 31.625 0 L 21.609375 0 L 21.609375 -22.125 L 1.3125 -61.046875 L 12.46875 -61.046875 L 26.609375 -31.09375 L 40.75 -61.046875 Z M 51.8125 -61.046875 "/></g></g></g><g fill="#8866ff" fill-opacity="1"><g transform="translate(60.483786, 90.363609)"><g><path d="M 34.421875 0.609375 C 28.742188 0.609375 23.519531 -0.71875 18.75 -3.375 C 13.976562 -6.039062 10.203125 -9.757812 7.421875 -14.53125 C 4.640625 -19.300781 3.25 -24.675781 3.25 -30.65625 C 3.25 -36.625 4.640625 -41.976562 7.421875 -46.71875 C 10.203125 -51.46875 13.976562 -55.171875 18.75 -57.828125 C 23.519531 -60.492188 28.742188 -61.828125 34.421875 -61.828125 C 40.160156 -61.828125 45.414062 -60.492188 50.1875 -57.828125 C 54.96875 -55.171875 58.734375 -51.46875 61.484375 -46.71875 C 64.234375 -41.976562 65.609375 -36.625 65.609375 -30.65625 C 65.609375 -24.675781 64.234375 -19.300781 61.484375 -14.53125 C 58.734375 -9.757812 54.96875 -6.039062 50.1875 -3.375 C 45.414062 -0.71875 40.160156 0.609375 34.421875 0.609375 Z M 34.421875 -8.078125 C 38.460938 -8.078125 42.0625 -9 45.21875 -10.84375 C 48.382812 -12.6875 50.859375 -15.320312 52.640625 -18.75 C 54.429688 -22.175781 55.328125 -26.144531 55.328125 -30.65625 C 55.328125 -35.164062 54.429688 -39.117188 52.640625 -42.515625 C 50.859375 -45.910156 48.382812 -48.515625 45.21875 -50.328125 C 42.0625 -52.140625 38.460938 -53.046875 34.421875 -53.046875 C 30.390625 -53.046875 26.789062 -52.140625 23.625 -50.328125 C 20.46875 -48.515625 17.992188 -45.910156 16.203125 -42.515625 C 14.421875 -39.117188 13.53125 -35.164062 13.53125 -30.65625 C 13.53125 -26.144531 14.421875 -22.175781 16.203125 -18.75 C 17.992188 -15.320312 20.46875 -12.6875 23.625 -10.84375 C 26.789062 -9 30.390625 -8.078125 34.421875 -8.078125 Z M 34.421875 -8.078125 "/></g></g></g><g fill="#8866ff" fill-opacity="1"><g transform="translate(136.375008, 90.363609)"><g><path d="M 16.515625 -61.046875 L 16.515625 -22.125 C 16.515625 -17.5 17.726562 -14.015625 20.15625 -11.671875 C 22.582031 -9.335938 25.960938 -8.171875 30.296875 -8.171875 C 34.691406 -8.171875 38.101562 -9.335938 40.53125 -11.671875 C 42.957031 -14.015625 44.171875 -17.5 44.171875 -22.125 L 44.171875 -61.046875 L 54.1875 -61.046875 L 54.1875 -22.3125 C 54.1875 -17.332031 53.101562 -13.113281 50.9375 -9.65625 C 48.769531 -6.207031 45.867188 -3.632812 42.234375 -1.9375 C 38.609375 -0.238281 34.601562 0.609375 30.21875 0.609375 C 25.820312 0.609375 21.820312 -0.238281 18.21875 -1.9375 C 14.625 -3.632812 11.769531 -6.207031 9.65625 -9.65625 C 7.550781 -13.113281 6.5 -17.332031 6.5 -22.3125 L 6.5 -61.046875 Z M 16.515625 -61.046875 "/></g></g></g><g fill="#8866ff" fill-opacity="1"><g transform="translate(204.009681, 90.363609)"><g><path d="M 38.296875 0 L 24.234375 -24.421875 L 16.59375 -24.421875 L 16.59375 0 L 6.59375 0 L 6.59375 -61.046875 L 27.671875 -61.046875 C 32.347656 -61.046875 36.3125 -60.222656 39.5625 -58.578125 C 42.8125 -56.941406 45.238281 -54.742188 46.84375 -51.984375 C 48.457031 -49.234375 49.265625 -46.160156 49.265625 -42.765625 C 49.265625 -38.785156 48.109375 -35.171875 45.796875 -31.921875 C 43.484375 -28.671875 39.925781 -26.460938 35.125 -25.296875 L 50.234375 0 Z M 16.59375 -32.40625 L 27.671875 -32.40625 C 31.410156 -32.40625 34.234375 -33.34375 36.140625 -35.21875 C 38.046875 -37.09375 39 -39.609375 39 -42.765625 C 39 -45.929688 38.0625 -48.40625 36.1875 -50.1875 C 34.3125 -51.976562 31.472656 -52.875 27.671875 -52.875 L 16.59375 -52.875 Z M 16.59375 -32.40625 "/></g></g></g><g fill="#8866ff" fill-opacity="1"><g transform="translate(266.549885, 90.363609)"><g/></g></g><g fill="#8866ff" fill-opacity="1"><g transform="translate(296.415175, 90.363609)"><g><path d="M 49.265625 -42.859375 C 49.265625 -39.753906 48.53125 -36.828125 47.0625 -34.078125 C 45.601562 -31.328125 43.265625 -29.085938 40.046875 -27.359375 C 36.828125 -25.628906 32.703125 -24.765625 27.671875 -24.765625 L 16.59375 -24.765625 L 16.59375 0 L 6.59375 0 L 6.59375 -61.046875 L 27.671875 -61.046875 C 32.347656 -61.046875 36.3125 -60.238281 39.5625 -58.625 C 42.8125 -57.007812 45.238281 -54.828125 46.84375 -52.078125 C 48.457031 -49.328125 49.265625 -46.253906 49.265625 -42.859375 Z M 27.671875 -32.9375 C 31.472656 -32.9375 34.3125 -33.800781 36.1875 -35.53125 C 38.0625 -37.257812 39 -39.703125 39 -42.859375 C 39 -49.535156 35.222656 -52.875 27.671875 -52.875 L 16.59375 -52.875 L 16.59375 -32.9375 Z M 27.671875 -32.9375 "/></g></g></g><g fill="#8866ff" fill-opacity="1"><g transform="translate(355.705429, 90.363609)"><g><path d="M 43.390625 -12.46875 L 17.828125 -12.46875 L 13.4375 0 L 2.984375 0 L 24.859375 -61.125 L 36.453125 -61.125 L 58.3125 0 L 47.78125 0 Z M 40.578125 -20.640625 L 30.65625 -49.015625 L 20.640625 -20.640625 Z M 40.578125 -20.640625 "/></g></g></g><g fill="#8866ff" fill-opacity="1"><g transform="translate(423.954933, 90.363609)"><g><path d="M 46.015625 -61.046875 L 46.015625 -52.875 L 29.78125 -52.875 L 29.78125 0 L 19.765625 0 L 19.765625 -52.875 L 3.421875 -52.875 L 3.421875 -61.046875 Z M 46.015625 -61.046875 "/></g></g></g><g fill="#8866ff" fill-opacity="1"><g transform="translate(480.522286, 90.363609)"><g><path d="M 55.328125 -61.046875 L 55.328125 0 L 45.3125 0 L 45.3125 -26.703125 L 16.59375 -26.703125 L 16.59375 0 L 6.59375 0 L 6.59375 -61.046875 L 16.59375 -61.046875 L 16.59375 -34.875 L 45.3125 -34.875 L 45.3125 -61.046875 Z M 55.328125 -61.046875 "/></g></g></g><g fill="#8866ff" fill-opacity="1"><g transform="translate(549.474489, 90.363609)"><g/></g></g><g fill="#8866ff" fill-opacity="1"><g transform="translate(579.339779, 90.363609)"><g><path d="M 46.015625 -61.046875 L 46.015625 -52.875 L 29.78125 -52.875 L 29.78125 0 L 19.765625 0 L 19.765625 -52.875 L 3.421875 -52.875 L 3.421875 -61.046875 Z M 46.015625 -61.046875 "/></g></g></g><g fill="#8866ff" fill-opacity="1"><g transform="translate(635.90716, 90.363609)"><g><path d="M 34.421875 0.609375 C 28.742188 0.609375 23.519531 -0.71875 18.75 -3.375 C 13.976562 -6.039062 10.203125 -9.757812 7.421875 -14.53125 C 4.640625 -19.300781 3.25 -24.675781 3.25 -30.65625 C 3.25 -36.625 4.640625 -41.976562 7.421875 -46.71875 C 10.203125 -51.46875 13.976562 -55.171875 18.75 -57.828125 C 23.519531 -60.492188 28.742188 -61.828125 34.421875 -61.828125 C 40.160156 -61.828125 45.414062 -60.492188 50.1875 -57.828125 C 54.96875 -55.171875 58.734375 -51.46875 61.484375 -46.71875 C 64.234375 -41.976562 65.609375 -36.625 65.609375 -30.65625 C 65.609375 -24.675781 64.234375 -19.300781 61.484375 -14.53125 C 58.734375 -9.757812 54.96875 -6.039062 50.1875 -3.375 C 45.414062 -0.71875 40.160156 0.609375 34.421875 0.609375 Z M 34.421875 -8.078125 C 38.460938 -8.078125 42.0625 -9 45.21875 -10.84375 C 48.382812 -12.6875 50.859375 -15.320312 52.640625 -18.75 C 54.429688 -22.175781 55.328125 -26.144531 55.328125 -30.65625 C 55.328125 -35.164062 54.429688 -39.117188 52.640625 -42.515625 C 50.859375 -45.910156 48.382812 -48.515625 45.21875 -50.328125 C 42.0625 -52.140625 38.460938 -53.046875 34.421875 -53.046875 C 30.390625 -53.046875 26.789062 -52.140625 23.625 -50.328125 C 20.46875 -48.515625 17.992188 -45.910156 16.203125 -42.515625 C 14.421875 -39.117188 13.53125 -35.164062 13.53125 -30.65625 C 13.53125 -26.144531 14.421875 -22.175781 16.203125 -18.75 C 17.992188 -15.320312 20.46875 -12.6875 23.625 -10.84375 C 26.789062 -9 30.390625 -8.078125 34.421875 -8.078125 Z M 34.421875 -8.078125 "/></g></g></g><g fill="#8866ff" fill-opacity="1"><g transform="translate(711.798323, 90.363609)"><g/></g></g><g fill="#8866ff" fill-opacity="1"><g transform="translate(741.663613, 90.363609)"><g><path d="M 16.59375 -52.953125 L 16.59375 -35.046875 L 37.671875 -35.046875 L 37.671875 -26.875 L 16.59375 -26.875 L 16.59375 -8.171875 L 40.3125 -8.171875 L 40.3125 0 L 6.59375 0 L 6.59375 -61.125 L 40.3125 -61.125 L 40.3125 -52.953125 Z M 16.59375 -52.953125 "/></g></g></g><g fill="#8866ff" fill-opacity="1"><g transform="translate(794.717579, 90.363609)"><g><path d="M 70.875 -61.046875 L 70.875 0 L 60.859375 0 L 60.859375 -41.8125 L 42.25 0 L 35.3125 0 L 16.59375 -41.8125 L 16.59375 0 L 6.59375 0 L 6.59375 -61.046875 L 17.390625 -61.046875 L 38.8125 -13.171875 L 60.15625 -61.046875 Z M 70.875 -61.046875 "/></g></g></g><g fill="#8866ff" fill-opacity="1"><g transform="translate(879.216713, 90.363609)"><g><path d="M 49.265625 -42.859375 C 49.265625 -39.753906 48.53125 -36.828125 47.0625 -34.078125 C 45.601562 -31.328125 43.265625 -29.085938 40.046875 -27.359375 C 36.828125 -25.628906 32.703125 -24.765625 27.671875 -24.765625 L 16.59375 -24.765625 L 16.59375 0 L 6.59375 0 L 6.59375 -61.046875 L 27.671875 -61.046875 C 32.347656 -61.046875 36.3125 -60.238281 39.5625 -58.625 C 42.8125 -57.007812 45.238281 -54.828125 46.84375 -52.078125 C 48.457031 -49.328125 49.265625 -46.253906 49.265625 -42.859375 Z M 27.671875 -32.9375 C 31.472656 -32.9375 34.3125 -33.800781 36.1875 -35.53125 C 38.0625 -37.257812 39 -39.703125 39 -42.859375 C 39 -49.535156 35.222656 -52.875 27.671875 -52.875 L 16.59375 -52.875 L 16.59375 -32.9375 Z M 27.671875 -32.9375 "/></g></g></g><g fill="#8866ff" fill-opacity="1"><g transform="translate(938.506939, 90.363609)"><g><path d="M 16.59375 -8.078125 L 37.234375 -8.078125 L 37.234375 0 L 6.59375 0 L 6.59375 -61.046875 L 16.59375 -61.046875 Z M 16.59375 -8.078125 "/></g></g></g><g fill="#8866ff" fill-opacity="1"><g transform="translate(984.534076, 90.363609)"><g><path d="M 34.421875 0.609375 C 28.742188 0.609375 23.519531 -0.71875 18.75 -3.375 C 13.976562 -6.039062 10.203125 -9.757812 7.421875 -14.53125 C 4.640625 -19.300781 3.25 -24.675781 3.25 -30.65625 C 3.25 -36.625 4.640625 -41.976562 7.421875 -46.71875 C 10.203125 -51.46875 13.976562 -55.171875 18.75 -57.828125 C 23.519531 -60.492188 28.742188 -61.828125 34.421875 -61.828125 C 40.160156 -61.828125 45.414062 -60.492188 50.1875 -57.828125 C 54.96875 -55.171875 58.734375 -51.46875 61.484375 -46.71875 C 64.234375 -41.976562 65.609375 -36.625 65.609375 -30.65625 C 65.609375 -24.675781 64.234375 -19.300781 61.484375 -14.53125 C 58.734375 -9.757812 54.96875 -6.039062 50.1875 -3.375 C 45.414062 -0.71875 40.160156 0.609375 34.421875 0.609375 Z M 34.421875 -8.078125 C 38.460938 -8.078125 42.0625 -9 45.21875 -10.84375 C 48.382812 -12.6875 50.859375 -15.320312 52.640625 -18.75 C 54.429688 -22.175781 55.328125 -26.144531 55.328125 -30.65625 C 55.328125 -35.164062 54.429688 -39.117188 52.640625 -42.515625 C 50.859375 -45.910156 48.382812 -48.515625 45.21875 -50.328125 C 42.0625 -52.140625 38.460938 -53.046875 34.421875 -53.046875 C 30.390625 -53.046875 26.789062 -52.140625 23.625 -50.328125 C 20.46875 -48.515625 17.992188 -45.910156 16.203125 -42.515625 C 14.421875 -39.117188 13.53125 -35.164062 13.53125 -30.65625 C 13.53125 -26.144531 14.421875 -22.175781 16.203125 -18.75 C 17.992188 -15.320312 20.46875 -12.6875 23.625 -10.84375 C 26.789062 -9 30.390625 -8.078125 34.421875 -8.078125 Z M 34.421875 -8.078125 "/></g></g></g><g fill="#8866ff" fill-opacity="1"><g transform="translate(1060.42524, 90.363609)"><g><path d="M 51.8125 -61.046875 L 31.625 -22.125 L 31.625 0 L 21.609375 0 L 21.609375 -22.125 L 1.3125 -61.046875 L 12.46875 -61.046875 L 26.609375 -31.09375 L 40.75 -61.046875 Z M 51.8125 -61.046875 "/></g></g></g><g fill="#8866ff" fill-opacity="1"><g transform="translate(1120.593877, 90.363609)"><g><path d="M 70.875 -61.046875 L 70.875 0 L 60.859375 0 L 60.859375 -41.8125 L 42.25 0 L 35.3125 0 L 16.59375 -41.8125 L 16.59375 0 L 6.59375 0 L 6.59375 -61.046875 L 17.390625 -61.046875 L 38.8125 -13.171875 L 60.15625 -61.046875 Z M 70.875 -61.046875 "/></g></g></g><g fill="#8866ff" fill-opacity="1"><g transform="translate(1205.093011, 90.363609)"><g><path d="M 16.59375 -52.953125 L 16.59375 -35.046875 L 37.671875 -35.046875 L 37.671875 -26.875 L 16.59375 -26.875 L 16.59375 -8.171875 L 40.3125 -8.171875 L 40.3125 0 L 6.59375 0 L 6.59375 -61.125 L 40.3125 -61.125 L 40.3125 -52.953125 Z M 16.59375 -52.953125 "/></g></g></g><g fill="#8866ff" fill-opacity="1"><g transform="translate(1258.146977, 90.363609)"><g><path d="M 56.734375 0 L 46.71875 0 L 16.59375 -45.578125 L 16.59375 0 L 6.59375 0 L 6.59375 -61.125 L 16.59375 -61.125 L 46.71875 -15.640625 L 46.71875 -61.125 L 56.734375 -61.125 Z M 56.734375 0 "/></g></g></g><g fill="#8866ff" fill-opacity="1"><g transform="translate(1328.50461, 90.363609)"><g><path d="M 46.015625 -61.046875 L 46.015625 -52.875 L 29.78125 -52.875 L 29.78125 0 L 19.765625 0 L 19.765625 -52.875 L 3.421875 -52.875 L 3.421875 -61.046875 Z M 46.015625 -61.046875 "/></g></g></g></g></g></svg>