<svg xmlns="http://www.w3.org/2000/svg" xmlns:xlink="http://www.w3.org/1999/xlink" width="2000" zoomAndPan="magnify" viewBox="0 0 1500 1499.999933" height="2000" preserveAspectRatio="xMidYMid meet" version="1.0"><defs><clipPath id="f06c5beee1"><path d="M 487 232 L 1484.125 232 L 1484.125 999 L 487 999 Z M 487 232 " clip-rule="nonzero"/></clipPath><clipPath id="7ee8264765"><path d="M 15.625 22.355469 L 1300 22.355469 L 1300 1477.355469 L 15.625 1477.355469 Z M 15.625 22.355469 " clip-rule="nonzero"/></clipPath></defs><g clip-path="url(#f06c5beee1)"><path fill="#222c42" d="M 1484.460938 752.335938 L 1421.195312 813.554688 L 1194.761719 589.371094 L 782.441406 998.140625 L 720.1875 935.882812 L 1132.179688 527.4375 L 959.308594 356.28125 L 549.945312 765.671875 L 487.6875 703.414062 L 958.984375 232.121094 Z M 1484.460938 752.335938 " fill-opacity="1" fill-rule="nonzero"/></g><g clip-path="url(#7ee8264765)"><path fill="#8866ff" d="M 1236.820312 863.953125 L 1299.078125 926.210938 L 747.808594 1477.449219 L 15.625 745.265625 L 748.015625 22.425781 L 810.511719 84.417969 L 140.523438 745.679688 L 747.808594 1352.964844 Z M 1236.820312 863.953125 " fill-opacity="1" fill-rule="nonzero"/></g></svg>